PathFileType	4	(X/Y/Z)	C:/Users/beibeiliu/ov580/test_trc/User1\sequence.5_training_dense_left.trc
DataRate	CameraRate	NumFrames	NumMarkers	Units	OrigDataRate	OrigDataStartFrame	OrigNumFrames
120	120	16	19	mm	120	1	39
Frame#	Time	ThumbCMC			ThumbMCP			ThumbIP			ThumbTip			IndexMCP			IndexPIP			IndexTip			MiddleMCP			MiddlePIP			MiddleTip			RingMCP			RingPIP			RingTip			PinkyMCP			PinkyPIP			PinkyTip			BackHand1			BackHand2			BackHand3	
		X0	Y0	Z0	X1	Y1	Z1	X2	Y2	Z2	X3	Y3	Z3	X4	Y4	Z4	X5	Y5	Z5	X6	Y6	Z6	X7	Y7	Z7	X8	Y8	Z8	X9	Y9	Z9	X10	Y10	Z10	X11	Y11	Z11	X12	Y12	Z12	X13	Y13	Z13	X14	Y14	Z14	X15	Y15	Z15	X16	Y16	Z16	X17	Y17	Z17	X18	Y18	Z18	
0	0	-168.386	96.3787	93.0144	-139.221	106.699	68.8247	-122.131	108.224	43.3185	-102.139	95.0704	22.2866	-173.906	66.9472	12.4798	-165.126	65.4578	-13.599	-147.564	62.5509	-41.7648	-146.403	52.6348	9.83389	-112.712	64.7338	7.83502	-101.209	76.2479	43.5444	-129.717	38.835	22.3241	-102.486	53.0971	28.8066	-100.046	64.4272	60.7687	-122.665	18.3159	40.446	-103.305	36.8094	44.1393	-112.504	59.1725	68.1642	-175.477	25.4004	66.8416	-182.776	26.6463	107.148	-191.622	57.8539	82.1512	
1	0.00833333	-146.834	95.2466	100.633	-117.56	98.1654	75.3367	-106.944	92.5015	49.872	-93.6856	80.8799	24.8829	-165.417	91.0779	17.6059	-155.262	88.5518	-11.0623	-137.367	82.5324	-35.1496	-148.912	69.9732	9.35631	-117.418	65.7102	6.25147	-102.12	60.6067	44.6127	-143.908	41.8412	18.8333	-111.415	45.9396	25.7656	-105.637	48.2845	63.3133	-148.32	23.2034	33.6952	-116.125	30.1225	41.1883	-114.661	45.5922	67.0775	-187.165	42.8607	68.4695	-193.069	42.476	102.993	-184.794	78.4068	86.7849	
2	0.0166667	-123	79.1399	112.66	-98.104	72.3288	86.028	-87.2134	70.8192	53.0735	-84.7791	60.8957	32.6319	-131.198	109.211	28.476	-125.553	102.934	5.55051	-111.518	97.6661	-17.6851	-141.863	83.9128	19.0097	-113.473	64.1867	10.6767	-102.179	46.6249	43.3389	-147.65	61.2142	22.3811	-117.212	39.1383	27.3773	-114.412	30.8136	59.1724	-162.102	38.3372	29.1677	-133.205	26.6814	35.3147	-125.052	34.4302	64.2	-186.001	67.9584	73.0443	-188.938	60.937	107.458	-165.042	88.1741	101.14	
3	0.025	-111.401	74.2399	111.892	-92.3348	63.0057	84.5733	-83.4049	60.7038	56.1384	-80.6592	51.9796	33.3275	-121.462	111.121	36.0262	-109.557	110.318	8.88513	-102.922	95.4932	-11.9194	-133.872	89.5176	25.7269	-110.578	61.8307	13.8499	-105.056	39.3522	43.6524	-142.931	66.2393	24.1029	-120.902	38.952	26.2711	-115.563	27.8074	53.0846	-162.237	51.432	32.688	-136.082	33.9082	33.3574	-125.365	31.2906	63.5468	-177.712	77.3868	75.8423	-186.41	64.891	109.467	-153.335	90.9917	104.841	
4	0.0333333	-112.638	67.649	116.611	-87.7933	59.268	86.0622	-76.6651	55.7513	60.5499	-74.8273	47.7739	33.8736	-108.601	106.493	41.282	-98.8995	100.383	16.2605	-85.7855	86.1475	-5.6102	-122.366	86.1595	23.5535	-102.424	57.0294	19.3468	-99.7472	36.1782	46.7393	-141.685	61.6084	25.5389	-115.887	35.8355	29.4091	-116.197	24.0465	60.0463	-159.519	45.8342	31.4243	-134.28	33.5176	34.9663	-123.79	29.4642	66.2091	-174.542	79.1943	77.0424	-178.787	70.1238	110.837	-148.548	89.0912	105.559	
5	0.0416667	-111.609	73.8804	115.807	-86.2455	64.676	91.8732	-75.0757	61.8353	62.9888	-67.5995	51.5687	39.6638	-107.076	102.493	41.3486	-95.3941	89.4659	13.7192	-80.406	77.3349	-1.67419	-120.755	78.195	24.566	-95.7422	55.3358	22.1039	-94.8195	35.6765	54.9531	-134.558	54.3229	27.0158	-108.302	30.704	34.8384	-107.7	23.2831	63.9079	-149.863	39.7037	33.6207	-125.14	28.2491	38.8182	-118.018	28.9897	71.2927	-170.279	73.3258	79.2808	-179.501	63.7735	110.007	-147.326	89.4833	106.434	
6	0.05	-121.972	95.3062	111.831	-90.9745	91.4009	90.4333	-78.3049	83.8209	68.9424	-66.9294	72.7721	46.5694	-126.6	96.8859	26.1069	-112.381	92.842	7.3003	-92.1847	78.3434	-9.53637	-121.652	70.9363	21.1755	-91.0432	62.4577	23.5353	-82.3252	52.6431	63.243	-125.968	50.8948	30.6006	-94.1745	38.6406	40.942	-92.1179	40.3902	76.9357	-133.883	25.6832	40.1342	-105.029	27.7412	52.919	-105.999	39.4973	81.1087	-169.306	59.0558	75.8923	-180.82	52.4925	108.36	-163.761	86.969	97.6054	
7	0.0583333	-143.406	104.355	104.429	-110.141	108.272	83.7219	-90.4095	103.241	57.7659	-72.1496	91.4303	43.0167	-141.607	82.524	17.2554	-122.746	77.8404	-5.29271	-102.736	67.8046	-17.4451	-122.236	61.7314	19.4514	-90.5409	64.7155	24.7229	-83.1476	74.1896	65.3522	-118.032	43.1665	32.9859	-86.0024	45.4996	47.8558	-87.8692	55.0141	78.2483	-115.442	20.7899	48.151	-94.2236	35.3192	58.4858	-104.166	53.5561	87.1818	-167.194	38.1351	75.5467	-177.898	41.2958	106.593	-175.881	78.6551	87.3603	
8	0.0666667	-157.357	103.206	92.0397	-126.455	111.22	70.802	-107.629	105.968	50.9688	-85.8798	95.4681	34.1101	-156.559	69.9926	14.3076	-138.843	63.0056	-12.8644	-115.043	62.5286	-30.5415	-130.162	55.2927	17.9721	-93.8966	66.2978	23.5325	-89.8093	81.0975	57.4272	-115.943	39.5638	32.9143	-87.689	53.6707	45.0762	-92.9172	70.275	75.3954	-113.948	20.7493	52.8955	-93.0828	42.4669	57.7979	-103.389	62.5218	84.5304	-164.624	32.6962	75.3571	-175.71	35.5129	111.077	-180.943	67.4935	84.6777	
9	0.075	-165.098	100.328	90.7848	-134.554	115.73	66.084	-115.936	113.192	46.0891	-95.9132	100.429	32.9892	-162.241	68.4477	10.2764	-146.125	61.0194	-11.307	-119.956	62.2833	-29.5033	-134.21	56.4138	13.5801	-102.776	71.5237	15.9507	-96.1171	85.3053	50.7726	-120.323	43.5576	28.3998	-91.7457	55.923	39.3296	-95.8295	72.6032	69.6126	-118.6	26.0672	49.7045	-95.2337	47.6079	56.5744	-107.136	66.1136	78.9723	-165.869	28.1849	75.5091	-176.889	33.1006	106.17	-186.288	65.0921	83.591	
10	0.0833333	-163.081	103.332	91.5667	-132.8	114.123	70.6987	-113.851	111.517	47.8341	-93.5402	101.835	30.24	-154.488	78.3979	10.3324	-136.108	79.5932	-9.6052	-106.688	78.9642	-22.6862	-134.459	61.5056	11.6415	-104.528	73.4	15.4237	-96.245	81.1301	52.5783	-122.363	40.7305	28.4678	-94.0531	56.6469	36.8801	-97.347	71.8131	69.4821	-122.2	27.6232	45.7715	-97.8158	47.0986	52.5667	-108.621	64.0752	76.843	-169.672	31.9251	72.3729	-179.153	35.5545	102.151	-187.042	66.9134	82.4713	
11	0.0916667	-151.144	103.63	103.341	-119.083	115.383	80.0917	-103.653	111.849	54.9108	-90.5363	98.1934	36.0126	-151.315	98.3825	15.8573	-131.01	97.3501	-4.78457	-107.806	92.0814	-15.7291	-142.024	74.4477	14.2659	-105.419	75.6154	15.6287	-96.5992	78.2867	55.4388	-133.996	49.6888	25.6532	-101.392	58.2165	32.3401	-97.7552	62.2988	65.605	-130.487	34.7968	37.3522	-107.65	44.3547	45.0583	-110.92	58.5674	76.9799	-178.755	44.9156	69.3585	-185.744	42.8856	103.868	-182.437	83.5357	86.9444	
12	0.1	-135.528	97.7733	108.15	-107.109	94.134	84.2254	-91.8661	94.0985	57.8504	-85.2588	84.3288	32.8723	-143.83	117.931	26.9269	-128.754	116.037	4.27996	-111.299	104.312	-12.171	-145.033	93.8124	18.1564	-113.307	77.493	14.2988	-102.802	63.8925	46.5859	-149.517	62.4223	21.8327	-114.358	55.9575	27.6537	-109.589	49.7441	59.3229	-157.457	42.617	32.8711	-128.248	40.7867	35.1152	-121.082	50.3575	69.5417	-184.953	70.2005	72.4976	-191.496	60.2279	109.529	-173.737	94.46	100.185	
13	0.108333	-122.741	74.7878	112.9	-98.5198	68.2212	80.5457	-91.2538	68.0382	51.9253	-91.4486	60.4633	25.4636	-131.245	112.778	36.8274	-119.659	110.745	12.0601	-106.517	96.852	-13.8685	-142.821	95.1666	19.9443	-120.099	70.1123	11.6088	-113.05	48.4566	40.0426	-156.272	70.5401	21.5924	-134.166	48.3352	20.1005	-125.662	35.985	50.2158	-170.56	55.2324	28.3362	-146.581	37.8101	32.2855	-135.601	41.1864	61.2654	-184.378	81.6026	77.7509	-192.073	71.2047	111.933	-162.053	93.9447	109.64	
14	0.116667	-118.351	66.5947	111.066	-98.6293	56.2066	80.4798	-91.6436	56.2089	50.4912	-95.4835	52.2043	23.994	-126.946	112.513	36.4959	-119.305	112.084	11.4096	-109.766	101.75	-15.1826	-141.517	94.7134	24.0813	-123.568	67.4916	9.51786	-119.58	39.5009	40.7314	-158.259	72.4141	22.8257	-139.272	44.3947	19.2983	-132.234	31.1487	46.3776	-177.765	56.3592	27.5312	-156.586	38.7054	26.0605	-141.526	33.9075	60.1719	-186.221	82.4724	81.6484	-187.344	70.4515	112.496	-156.427	90.1395	107.946	
15	0.125	-116.912	67.5022	111.105	-97.3952	58.4759	79.0909	-89.611	59.1194	48.0933	-90.0351	50.4561	26.1495	-124.486	112.891	38.335	-115.692	114.177	11.798	-111.066	103.834	-19.0833	-142.115	91.6655	23.461	-118.407	62.8766	11.0697	-114.319	38.2575	38.2954	-157.204	70.2628	23.6531	-135.737	44.0955	20.7112	-130.889	28.0958	49.4591	-175.489	54.1899	28.6772	-151.671	37.9757	28.9214	-138.013	34.9355	59.9631	-181.139	82.7248	78.8681	-186.525	70.4547	112.924	-153.49	93.7121	106.377	
